<svg width="40" height="40" viewBox="0 0 40 40" fill="none" xmlns="http://www.w3.org/2000/svg">
<g clip-path="url(#clip0_3537_190)">
<path d="M20 40C31.0457 40 40 31.0457 40 20C40 8.95431 31.0457 0 20 0C8.95431 0 0 8.95431 0 20C0 31.0457 8.95431 40 20 40Z" fill="#FFDD2D"/>
<g clip-path="url(#clip1_3537_190)">
<path d="M29.3515 13.6665H10.6485C6.97663 13.6665 4 16.6513 4 20.3332C4 24.0151 6.97663 26.9998 10.6485 26.9998H29.3515C33.0234 26.9998 36 24.0151 36 20.3332C36 16.6513 33.0234 13.6665 29.3515 13.6665Z" fill="#303030"/>
<path d="M20.4429 18.3584H17.7896V22.6078H19.0802V21.4647H20.4419C20.7619 21.4647 21.0736 21.4552 21.3769 21.3577C21.9646 21.17 22.4008 20.6435 22.4008 19.9294C22.4008 19.2152 21.973 18.6971 21.3946 18.4926C21.0746 18.3762 20.7713 18.3584 20.4419 18.3584H20.4429ZM19.0812 20.4653V19.3851H20.2568C20.5057 19.3851 20.6489 19.4124 20.764 19.4564C20.969 19.5372 21.0662 19.7238 21.0662 19.921C21.0662 20.1349 20.9502 20.3405 20.7284 20.4118C20.6218 20.4474 20.4973 20.4653 20.2568 20.4653H19.0812Z" fill="white"/>
<path d="M24.2519 21.0546L24.8658 19.341H24.9641L25.5781 21.0546H24.2519ZM23.9319 21.9922H25.8908L26.1397 22.6078H27.5903L25.8542 18.3584H23.9664L22.2303 22.6078H23.6903L23.9308 21.9922H23.9319Z" fill="white"/>
<path d="M30.732 18.3584L29.682 20.2954H29.637L28.5776 18.3584H27.0736L28.9876 21.4825V22.6078H30.3231V21.3755L32.1398 18.3584H30.732Z" fill="white"/>
<path d="M7.8613 17.0981H15.0317V20.7141C15.0317 21.6412 14.538 22.498 13.738 22.9615L11.4465 24.2881L9.15502 22.9615C8.3539 22.498 7.8613 21.6412 7.8613 20.7141V17.0981Z" fill="#FFDD2D"/>
<path fill-rule="evenodd" clip-rule="evenodd" d="M9.82855 19.0015V20.1257C9.98229 19.9516 10.2605 19.8341 10.5795 19.8341H10.9256V21.1419C10.9256 21.4901 10.8315 21.7942 10.6914 21.962H12.1985C12.0594 21.7942 11.9652 21.4901 11.9652 21.1429V19.8352H12.3114C12.6304 19.8352 12.9096 19.9526 13.0623 20.1267V19.0025H9.8275L9.82855 19.0015Z" fill="#333333"/>
</g>
</g>
<defs>
<clipPath id="clip0_3537_190">
<rect width="40" height="40" fill="white"/>
</clipPath>
<clipPath id="clip1_3537_190">
<rect width="32" height="13.3333" fill="white" transform="translate(4 13.6665)"/>
</clipPath>
</defs>
</svg>
